DBRep_DrawableShape

CASCADE Topology V1, (c) Matra-Datavision
Locations 0
Curve2ds 72
1 -2.6454533008646308e-16 -2.6454533008646308e-16 1 0 
1 1.4999999999999998 -1.5 -1 0 
1 3 -4.2500725161431774e-17 0 1 
1 -2.6454533008646308e-16 -2.6454533008646308e-16 7.4014868308343753e-17 1 
1 -2.6454533008646308e-16 3 1 0 
1 -1.5 -1.5 1 -7.4014868308343765e-17 
1 -2.6454533008646308e-16 -2.6454533008646308e-16 7.4014868308343889e-17 1 
1 3 -4.2500725161431774e-17 0 1 
1 -2.6454533008646308e-16 -2.6454533008646308e-16 1 0 
1 1.4999999999999998 1.4999999999999998 7.4014868308343765e-17 -1 
1 -2.6454533008646308e-16 3 1 0 
1 -1.5 1.4999999999999998 -7.4014868308343765e-17 -1 
1 -2.6454533008646308e-16 -2.6454533008646308e-16 0 1 
1 3 -4.2500725161431774e-17 0 1 
1 -2.6454533008646308e-16 -2.6454533008646308e-16 1 0 
1 -1.5000000000000002 1.4999999999999998 1 0 
1 -2.6454533008646308e-16 3 1 0 
1 1.4999999999999998 1.4999999999999998 -1 0 
1 -2.6454533008646308e-16 -2.6454533008646308e-16 0 1 
1 3 -4.2500725161431774e-17 0 1 
1 -2.6454533008646308e-16 -2.6454533008646308e-16 1 0 
1 -1.5000000000000002 -1.5000000000000002 0 1 
1 -2.6454533008646308e-16 3 1 0 
1 1.4999999999999998 -1.5000000000000002 0 1 
1 1.8301332671555315e-16 -1.7694179454963432e-16 1 0 
1 1.4999999999999998 -1.5000000000000002 -1 7.401486830834379e-17 
1 2.9999999999999991 -1.7694179454963432e-16 0 1 
1 -2.6454533008646308e-16 -1.7694179454963432e-16 5.5511151231257827e-17 1 
1 1.8301332671555315e-16 4 1 0 
1 -1.4999999999999998 -1.5 1 -7.4014868308343778e-17 
1 1.8301332671555315e-16 -1.7694179454963432e-16 0 1 
1 3 -1.7694179454963432e-16 0 1 
1 -2.6454533008646308e-16 -1.7694179454963432e-16 1 0 
1 1.4999999999999998 1.4999999999999998 0 -1 
1 -2.6454533008646308e-16 4 1 0 
1 -1.4999999999999998 1.4999999999999998 0 -1 
1 -2.6454533008646308e-16 -1.7694179454963432e-16 0 1 
1 2.9999999999999996 -1.7694179454963432e-16 0 1 
1 5.7939764097625357e-16 -1.7694179454963432e-16 1 0 
1 -1.4999999999999993 1.4999999999999998 1 0 
1 5.7939764097625357e-16 4 1 0 
1 1.4999999999999998 1.4999999999999998 -1 0 
1 5.7939764097625357e-16 -1.7694179454963432e-16 0 1 
1 3 -1.7694179454963432e-16 0 1 
1 -2.6454533008646308e-16 -1.7694179454963432e-16 1 0 
1 -1.4999999999999993 -1.5000000000000002 0 1 
1 -2.6454533008646308e-16 4 1 0 
1 1.4999999999999998 -1.5000000000000002 0 1 
1 -2.6454533008646308e-16 -5.377642775528102e-17 1 0 
1 1.4999999999999998 1.4999999999999998 0 -1 
1 3 -5.377642775528102e-17 0 1 
1 -2.1337098754514727e-16 -5.377642775528102e-17 0 1 
1 -2.6454533008646308e-16 2 1 0 
1 -1.5000000000000002 1.4999999999999998 0 -1 
1 -2.6454533008646308e-16 -5.377642775528102e-17 0 1 
1 3 -5.377642775528102e-17 0 1 
1 7.7195194680967916e-16 -5.377642775528102e-17 1 0 
1 -1.5000000000000009 1.4999999999999998 1 0 
1 7.7195194680967916e-16 2 1 0 
1 1.5000000000000004 1.4999999999999998 -1 0 
1 7.7195194680967916e-16 -5.377642775528102e-17 0 1 
1 3 -5.377642775528102e-17 0 1 
1 -2.6454533008646308e-16 -5.377642775528102e-17 1 0 
1 -1.5000000000000009 -1.5000000000000002 0 1 
1 -2.6454533008646308e-16 2 1 0 
1 1.5000000000000004 -1.5 0 1 
1 -2.6454533008646308e-16 -5.377642775528102e-17 1.1102230246251565e-16 1 
1 2.9999999999999991 -5.377642775528102e-17 0 1 
1 -2.1337098754514727e-16 -5.377642775528102e-17 1 0 
1 1.4999999999999998 -1.5000000000000002 -1 0 
1 -2.1337098754514727e-16 2 1 0 
1 -1.5000000000000002 -1.5000000000000002 1 0 
Curves 36
7 0 0  1 2 2  4.4408920985006301e-16 0 0  3 0 0 
 0 2 3 2
7 0 0  1 2 2  3 0 0  3 0 3 
 0 2 3 2
7 0 0  1 2 2  4.4408920985006301e-16 0 3  3 0 3 
 0 2 3 2
7 0 0  1 2 2  4.4408920985006301e-16 0 0  4.4408920985006301e-16 0 3 
 0 2 3 2
7 0 0  1 2 2  4.4408920985006301e-16 3 0  4.4408920985006301e-16 0 0 
 0 2 3 2
7 0 0  1 2 2  4.4408920985006301e-16 3 3  4.4408920985006301e-16 0 3 
 0 2 3 2
7 0 0  1 2 2  4.4408920985006301e-16 3 0  4.4408920985006301e-16 3 3 
 0 2 3 2
7 0 0  1 2 2  3 3 0  4.4408920985006301e-16 3 0 
 0 2 3 2
7 0 0  1 2 2  3 3 3  4.4408920985006301e-16 3 3 
 0 2 3 2
7 0 0  1 2 2  3 3 0  3 3 3 
 0 2 3 2
7 0 0  1 2 2  3 0 0  3 3 0 
 0 2 3 2
7 0 0  1 2 2  3 0 3  3 3 3 
 0 2 3 2
7 0 0  1 2 2  3 0 0  6 0 0 
 0 2 3 2
7 0 0  1 2 2  6 0 0  6 0 4 
 0 2 4 2
7 0 0  1 2 2  3 0 4  6 0 4 
 0 2 3 2
7 0 0  1 2 2  3 0 0  3 0 4 
 0 2 4 2
7 0 0  1 2 2  3 3 0  3 0 0 
 0 2 3 2
7 0 0  1 2 2  3 3 4  3 0 4 
 0 2 3 2
7 0 0  1 2 2  3 3 0  3 3 4 
 0 2 4 2
7 0 0  1 2 2  6 3 0  3 3 0 
 0 2 3 2
7 0 0  1 2 2  6 3 4  3 3 4 
 0 2 3 2
7 0 0  1 2 2  6 3 0  6 3 4 
 0 2 4 2
7 0 0  1 2 2  6 0 0  6 3 0 
 0 2 3 2
7 0 0  1 2 2  6 0 4  6 3 4 
 0 2 3 2
7 0 0  1 2 2  6 3 0  6 0 0 
 0 2 3 2
7 0 0  1 2 2  6 0 0  6 0 2 
 0 2 2 2
7 0 0  1 2 2  6 3 2  6 0 2 
 0 2 3 2
7 0 0  1 2 2  6 3 0  6 3 2 
 0 2 2 2
7 0 0  1 2 2  9 3 0  6 3 0 
 0 2 3 2
7 0 0  1 2 2  9 3 2  6 3 2 
 0 2 3 2
7 0 0  1 2 2  9 3 0  9 3 2 
 0 2 2 2
7 0 0  1 2 2  9 0 0  9 3 0 
 0 2 3 2
7 0 0  1 2 2  9 0 2  9 3 2 
 0 2 3 2
7 0 0  1 2 2  9 0 0  9 0 2 
 0 2 2 2
7 0 0  1 2 2  6 0 0  9 0 0 
 0 2 3 2
7 0 0  1 2 2  6 0 2  9 0 2 
 0 2 3 2
Polygon3D 0
PolygonOnTriangulations 0
Surfaces 18
9 0 0 0 0 1 1 2 2 2 2 -0.00099999999999955593 0 -0.001  -0.00099999999999955593 0 3.0009999999999999  
3.0009999999999999 0 -0.001  3.0009999999999999 0 3.0009999999999999  

-0.001 2
3.0009999999999999 2

-0.001 2
3.0009999999999999 2

9 0 0 0 0 1 1 2 2 2 2 3.0009999999999999 -0.00099999999999989008 0  3.0009999999999999 3.0009999999999999 0  
-0.00099999999999944599 -0.00099999999999989008 0  -0.00099999999999944599 3.0009999999999999 0  

-1.5009999999999999 2
1.5009999999999999 2

-1.5009999999999999 2
1.5009999999999999 2

9 0 0 0 0 1 1 2 2 2 2 3 -0.001 -0.001  3 -0.001 3.0009999999999999  
3 3.0009999999999999 -0.001  3 3.0009999999999999 3.0009999999999999  

-0.001 2
3.0009999999999999 2

-0.001 2
3.0009999999999999 2

9 0 0 0 0 1 1 2 2 2 2 -0.00099999999999944599 -0.00099999999999989008 3  -0.00099999999999944599 3.0009999999999999 3  
3.0009999999999999 -0.00099999999999989008 3  3.0009999999999999 3.0009999999999999 3  

-1.5009999999999999 2
1.5009999999999999 2

-1.5009999999999999 2
1.5009999999999999 2

9 0 0 0 0 1 1 2 2 2 2 4.4408920985006301e-16 3.0009999999999999 -0.001  4.4408920985006301e-16 3.0009999999999999 3.0009999999999999  
4.4408920985006301e-16 -0.00099999999999989008 -0.001  4.4408920985006301e-16 -0.00099999999999989008 3.0009999999999999  

-0.001 2
3.0009999999999999 2

-0.001 2
3.0009999999999999 2

9 0 0 0 0 1 1 2 2 2 2 3.0009999999999999 3 -0.001  3.0009999999999999 3 3.0009999999999999  
-0.00099999999999944599 3 -0.001  -0.00099999999999944599 3 3.0009999999999999  

-0.001 2
3.0009999999999999 2

-0.001 2
3.0009999999999999 2

9 0 0 0 0 1 1 2 2 2 2 2.9990000000000001 0 -0.001  2.9990000000000001 0 4.0010000000000003  
6.0010000000000003 0 -0.001  6.0010000000000003 0 4.0010000000000003  

-0.001 2
3.0009999999999999 2

-0.001 2
4.0010000000000003 2

9 0 0 0 0 1 1 2 2 2 2 6.0010000000000003 -0.00099999999999989008 0  6.0010000000000003 3.0009999999999999 0  
2.9990000000000001 -0.00099999999999989008 0  2.9990000000000001 3.0009999999999999 0  

-1.5009999999999999 2
1.5009999999999999 2

-1.5009999999999999 2
1.5009999999999999 2

9 0 0 0 0 1 1 2 2 2 2 6 -0.001 -0.001  6 -0.001 4.0010000000000003  
6 3.0009999999999999 -0.001  6 3.0009999999999999 4.0010000000000003  

-0.001 2
3.0009999999999999 2

-0.001 2
4.0010000000000003 2

9 0 0 0 0 1 1 2 2 2 2 2.9990000000000001 -0.00099999999999989008 4  2.9990000000000001 3.0009999999999999 4  
6.0010000000000003 -0.00099999999999989008 4  6.0010000000000003 3.0009999999999999 4  

-1.5009999999999999 2
1.5009999999999999 2

-1.5009999999999999 2
1.5009999999999999 2

9 0 0 0 0 1 1 2 2 2 2 3 3.0009999999999999 -0.001  3 3.0009999999999999 4.0010000000000003  
3 -0.00099999999999989008 -0.001  3 -0.00099999999999989008 4.0010000000000003  

-0.001 2
3.0009999999999999 2

-0.001 2
4.0010000000000003 2

9 0 0 0 0 1 1 2 2 2 2 6.0010000000000003 3 -0.001  6.0010000000000003 3 4.0010000000000003  
2.9990000000000001 3 -0.001  2.9990000000000001 3 4.0010000000000003  

-0.001 2
3.0009999999999999 2

-0.001 2
4.0010000000000003 2

9 0 0 0 0 1 1 2 2 2 2 6 3.0009999999999999 -0.001  6 3.0009999999999999 2.0009999999999999  
6 -0.00099999999999989008 -0.001  6 -0.00099999999999989008 2.0009999999999999  

-0.001 2
3.0009999999999999 2

-0.001 2
2.0009999999999999 2

9 0 0 0 0 1 1 2 2 2 2 9.0009999999999994 -0.00099999999999989008 0  9.0009999999999994 3.0009999999999999 0  
5.9989999999999997 -0.00099999999999989008 0  5.9989999999999997 3.0009999999999999 0  

-1.5009999999999999 2
1.5009999999999999 2

-1.5009999999999999 2
1.5009999999999999 2

9 0 0 0 0 1 1 2 2 2 2 5.9989999999999997 0 -0.001  5.9989999999999997 0 2.0009999999999999  
9.0009999999999994 0 -0.001  9.0009999999999994 0 2.0009999999999999  

-0.001 2
3.0009999999999999 2

-0.001 2
2.0009999999999999 2

9 0 0 0 0 1 1 2 2 2 2 5.9989999999999997 -0.00099999999999989008 2  5.9989999999999997 3.0009999999999999 2  
9.0009999999999994 -0.00099999999999989008 2  9.0009999999999994 3.0009999999999999 2  

-1.5009999999999999 2
1.5009999999999999 2

-1.5009999999999999 2
1.5009999999999999 2

9 0 0 0 0 1 1 2 2 2 2 9.0009999999999994 3 -0.001  9.0009999999999994 3 2.0009999999999999  
5.9989999999999997 3 -0.001  5.9989999999999997 3 2.0009999999999999  

-0.001 2
3.0009999999999999 2

-0.001 2
2.0009999999999999 2

9 0 0 0 0 1 1 2 2 2 2 9 -0.001 -0.001  9 -0.001 2.0009999999999999  
9 3.0009999999999999 -0.001  9 3.0009999999999999 2.0009999999999999  

-0.001 2
3.0009999999999999 2

-0.001 2
2.0009999999999999 2

Triangulations 0

TShapes 108
Ve
1e-07
4.44089209850063e-16 0 0
0 0

0101101
*
Ve
1e-07
3 0 0
0 0

0101101
*
Ed
 2.22044604925031e-16 1 1 0
1  1 0 0 3
2  1 1 0 0 3
2  2 2 0 0 3
4 C0 1 0 2 0
0

0101000
+108 0 -107 0 *
Ve
1e-07
3 0 3
0 0

0101101
*
Ed
 2.22044604925031e-16 1 1 0
1  2 0 0 3
2  3 1 0 0 3
2  4 3 0 0 3
4 C0 1 0 3 0
0

0101000
+107 0 -105 0 *
Ve
1e-07
4.44089209850063e-16 0 3
0 0

0101101
*
Ed
 2.22044604925031e-16 1 1 0
1  3 0 0 3
2  5 1 0 0 3
2  6 4 0 0 3
4 C0 1 0 4 0
0

0101000
+103 0 -105 0 *
Ed
 2.22044604925031e-16 1 1 0
1  4 0 0 3
2  7 1 0 0 3
2  8 5 0 0 3
4 C0 1 0 5 0
0

0101000
+108 0 -103 0 *
Wi

0101100
+106 0 +104 0 -102 0 -101 0 *
Fa
0  1e-07 1 0

0111000
+100 0 *
Ve
1e-07
4.44089209850063e-16 3 0
0 0

0101101
*
Ed
 2.22044604925031e-16 1 1 0
1  5 0 0 3
2  9 5 0 0 3
2  10 2 0 0 3
4 C0 5 0 2 0
0

0101000
+98 0 -108 0 *
Ve
1e-07
4.44089209850063e-16 3 3
0 0

0101101
*
Ed
 2.22044604925031e-16 1 1 0
1  6 0 0 3
2  11 5 0 0 3
2  12 4 0 0 3
4 C0 5 0 4 0
0

0101000
+96 0 -103 0 *
Ed
 2.22044604925031e-16 1 1 0
1  7 0 0 3
2  13 5 0 0 3
2  14 6 0 0 3
4 C0 5 0 6 0
0

0101000
+98 0 -96 0 *
Wi

0101100
+97 0 +101 0 -95 0 -94 0 *
Fa
0  1e-07 5 0

0111000
+93 0 *
Ve
1e-07
3 3 0
0 0

0101101
*
Ed
 2.22044604925031e-16 1 1 0
1  8 0 0 3
2  15 6 0 0 3
2  16 2 0 0 3
4 C0 6 0 2 0
0

0101000
+91 0 -98 0 *
Ve
1e-07
3 3 3
0 0

0101101
*
Ed
 2.22044604925031e-16 1 1 0
1  9 0 0 3
2  17 6 0 0 3
2  18 4 0 0 3
4 C0 6 0 4 0
0

0101000
+89 0 -96 0 *
Ed
 2.22044604925031e-16 1 1 0
1  10 0 0 3
2  19 6 0 0 3
2  20 3 0 0 3
4 C0 6 0 3 0
0

0101000
+91 0 -89 0 *
Wi

0101100
+90 0 +94 0 -88 0 -87 0 *
Fa
0  1e-07 6 0

0111000
+86 0 *
Ed
 2.22044604925031e-16 1 1 0
1  11 0 0 3
2  21 3 0 0 3
2  22 2 0 0 3
4 C0 3 0 2 0
0

0101000
+107 0 -91 0 *
Ed
 2.22044604925031e-16 1 1 0
1  12 0 0 3
2  23 3 0 0 3
2  24 4 0 0 3
4 C0 3 0 4 0
0

0101000
+105 0 -89 0 *
Wi

0101100
+84 0 +87 0 -83 0 -104 0 *
Fa
0  1e-07 3 0

0111000
+82 0 *
Wi

0101100
+83 0 +88 0 +95 0 +102 0 *
Fa
0  1e-07 4 0

0111000
+80 0 *
Wi

0101100
-84 0 -106 0 -97 0 -90 0 *
Fa
0  1e-07 2 0

0111000
+78 0 *
Sh

0101100
+99 0 +92 0 +85 0 +81 0 +79 0 +77 0 *
So

0100000
+76 0 *
Ve
1e-07
3 0 0
0 0

0101101
*
Ve
1e-07
6 0 0
0 0

0101101
*
Ed
 2.22044604925031e-16 1 1 0
1  13 0 0 3
2  25 7 0 0 3
2  26 8 0 0 3
4 C0 7 0 8 0
0

0101000
+74 0 -73 0 *
Ve
1e-07
6 0 4
0 0

0101101
*
Ed
 2.22044604925031e-16 1 1 0
1  14 0 0 4
2  27 7 0 0 4
2  28 9 0 0 4
4 C0 7 0 9 0
0

0101000
+73 0 -71 0 *
Ve
1e-07
3 0 4
0 0

0101101
*
Ed
 2.22044604925031e-16 1 1 0
1  15 0 0 3
2  29 7 0 0 3
2  30 10 0 0 3
4 C0 7 0 10 0
0

0101000
+69 0 -71 0 *
Ed
 2.22044604925031e-16 1 1 0
1  16 0 0 4
2  31 7 0 0 4
2  32 11 0 0 4
4 C0 7 0 11 0
0

0101000
+74 0 -69 0 *
Wi

0101100
+72 0 +70 0 -68 0 -67 0 *
Fa
0  1e-07 7 0

0111000
+66 0 *
Ve
1e-07
3 3 0
0 0

0101101
*
Ed
 2.22044604925031e-16 1 1 0
1  17 0 0 3
2  33 11 0 0 3
2  34 8 0 0 3
4 C0 11 0 8 0
0

0101000
+64 0 -74 0 *
Ve
1e-07
3 3 4
0 0

0101101
*
Ed
 2.22044604925031e-16 1 1 0
1  18 0 0 3
2  35 11 0 0 3
2  36 10 0 0 3
4 C0 11 0 10 0
0

0101000
+62 0 -69 0 *
Ed
 2.22044604925031e-16 1 1 0
1  19 0 0 4
2  37 11 0 0 4
2  38 12 0 0 4
4 C0 11 0 12 0
0

0101000
+64 0 -62 0 *
Wi

0101100
+63 0 +67 0 -61 0 -60 0 *
Fa
0  1e-07 11 0

0111000
+59 0 *
Ve
1e-07
6 3 0
0 0

0101101
*
Ed
 2.22044604925031e-16 1 1 0
1  20 0 0 3
2  39 12 0 0 3
2  40 8 0 0 3
4 C0 12 0 8 0
0

0101000
+57 0 -64 0 *
Ve
1e-07
6 3 4
0 0

0101101
*
Ed
 2.22044604925031e-16 1 1 0
1  21 0 0 3
2  41 12 0 0 3
2  42 10 0 0 3
4 C0 12 0 10 0
0

0101000
+55 0 -62 0 *
Ed
 2.22044604925031e-16 1 1 0
1  22 0 0 4
2  43 12 0 0 4
2  44 9 0 0 4
4 C0 12 0 9 0
0

0101000
+57 0 -55 0 *
Wi

0101100
+56 0 +60 0 -54 0 -53 0 *
Fa
0  1e-07 12 0

0111000
+52 0 *
Ed
 2.22044604925031e-16 1 1 0
1  23 0 0 3
2  45 9 0 0 3
2  46 8 0 0 3
4 C0 9 0 8 0
0

0101000
+73 0 -57 0 *
Ed
 2.22044604925031e-16 1 1 0
1  24 0 0 3
2  47 9 0 0 3
2  48 10 0 0 3
4 C0 9 0 10 0
0

0101000
+71 0 -55 0 *
Wi

0101100
+50 0 +53 0 -49 0 -70 0 *
Fa
0  1e-07 9 0

0111000
+48 0 *
Wi

0101100
+49 0 +54 0 +61 0 +68 0 *
Fa
0  1e-07 10 0

0111000
+46 0 *
Wi

0101100
-50 0 -72 0 -63 0 -56 0 *
Fa
0  1e-07 8 0

0111000
+44 0 *
Sh

0101100
+65 0 +58 0 +51 0 +47 0 +45 0 +43 0 *
So

0100000
+42 0 *
Ve
1e-07
6 3 0
0 0

0101101
*
Ve
1e-07
6 0 0
0 0

0101101
*
Ed
 2.22044604925031e-16 1 1 0
1  25 0 0 3
2  49 13 0 0 3
2  50 14 0 0 3
4 C0 13 0 14 0
0

0101000
+40 0 -39 0 *
Ve
1e-07
6 0 2
0 0

0101101
*
Ed
 2.22044604925031e-16 1 1 0
1  26 0 0 2
2  51 13 0 0 2
2  52 15 0 0 2
4 C0 13 0 15 0
0

0101000
+39 0 -37 0 *
Ve
1e-07
6 3 2
0 0

0101101
*
Ed
 2.22044604925031e-16 1 1 0
1  27 0 0 3
2  53 13 0 0 3
2  54 16 0 0 3
4 C0 13 0 16 0
0

0101000
+35 0 -37 0 *
Ed
 2.22044604925031e-16 1 1 0
1  28 0 0 2
2  55 13 0 0 2
2  56 17 0 0 2
4 C0 13 0 17 0
0

0101000
+40 0 -35 0 *
Wi

0101100
+38 0 +36 0 -34 0 -33 0 *
Fa
0  1e-07 13 0

0111000
+32 0 *
Ve
1e-07
9 3 0
0 0

0101101
*
Ed
 2.22044604925031e-16 1 1 0
1  29 0 0 3
2  57 17 0 0 3
2  58 14 0 0 3
4 C0 17 0 14 0
0

0101000
+30 0 -40 0 *
Ve
1e-07
9 3 2
0 0

0101101
*
Ed
 2.22044604925031e-16 1 1 0
1  30 0 0 3
2  59 17 0 0 3
2  60 16 0 0 3
4 C0 17 0 16 0
0

0101000
+28 0 -35 0 *
Ed
 2.22044604925031e-16 1 1 0
1  31 0 0 2
2  61 17 0 0 2
2  62 18 0 0 2
4 C0 17 0 18 0
0

0101000
+30 0 -28 0 *
Wi

0101100
+29 0 +33 0 -27 0 -26 0 *
Fa
0  1e-07 17 0

0111000
+25 0 *
Ve
1e-07
9 0 0
0 0

0101101
*
Ed
 2.22044604925031e-16 1 1 0
1  32 0 0 3
2  63 18 0 0 3
2  64 14 0 0 3
4 C0 18 0 14 0
0

0101000
+23 0 -30 0 *
Ve
1e-07
9 0 2
0 0

0101101
*
Ed
 2.22044604925031e-16 1 1 0
1  33 0 0 3
2  65 18 0 0 3
2  66 16 0 0 3
4 C0 18 0 16 0
0

0101000
+21 0 -28 0 *
Ed
 2.22044604925031e-16 1 1 0
1  34 0 0 2
2  67 18 0 0 2
2  68 15 0 0 2
4 C0 18 0 15 0
0

0101000
+23 0 -21 0 *
Wi

0101100
+22 0 +26 0 -20 0 -19 0 *
Fa
0  1e-07 18 0

0111000
+18 0 *
Ed
 2.22044604925031e-16 1 1 0
1  35 0 0 3
2  69 15 0 0 3
2  70 14 0 0 3
4 C0 15 0 14 0
0

0101000
+39 0 -23 0 *
Ed
 2.22044604925031e-16 1 1 0
1  36 0 0 3
2  71 15 0 0 3
2  72 16 0 0 3
4 C0 15 0 16 0
0

0101000
+37 0 -21 0 *
Wi

0101100
+16 0 +19 0 -15 0 -36 0 *
Fa
0  1e-07 15 0

0111000
+14 0 *
Wi

0101100
+15 0 +20 0 +27 0 +34 0 *
Fa
0  1e-07 16 0

0111000
+12 0 *
Wi

0101100
-16 0 -38 0 -29 0 -22 0 *
Fa
0  1e-07 14 0

0111000
+10 0 *
Sh

0101100
+31 0 +24 0 +17 0 +13 0 +11 0 +9 0 *
So

0100000
+8 0 *
Ve
1e-07
2.45 3.73 1.2
0 0

0101101
*
Ve
1e-07
1.4 1 1.2
0 0

0101101
*
Ve
1e-07
3.49 1 1.2
0 0

0101101
*
Ve
1e-07
1.45 5.46 1.2
0 0

0101101
*
Ve
1e-07
3.45 5.46 1.2
0 0

0101101
*
Co

1100000
+75 0 +41 0 +7 0 +6 0 +5 0 +4 0 +3 0 +2 0 *

+1 0 