                                                                        S      1
,,,32Hteste_discretizacao_cubos_3_elem,22HAutoCAD 2024 - English,62HAutoG      1
desk Translation Framework DWG producer (atf_dwg_producer),32,38,7,99,  G      2
15,,1.,2,2HMM,1,0.08,15H20240727.183715,0.01,10000.,,7Hunknown,11,0,15H2G      3
0240727.140329;                                                         G      4
     186       1                       0                        00000000D      1
     186            -213       1       0                               0D      2
     186       2                       0                        00000000D      3
     186            -213       1       0                               0D      4
     186       3                       0                        00000000D      5
     186            -213       1       0                               0D      6
     514       4                                                00010000D      7
     514                       1       1                               0D      8
     514       5                                                00010000D      9
     514                       1       1                               0D     10
     514       6                                                00010000D     11
     514                       1       1                               0D     12
     510       7                                                00010000D     13
     510            -213       1       1                               0D     14
     510       8                                                00010000D     15
     510            -213       1       1                               0D     16
     510       9                                                00010000D     17
     510            -213       1       1                               0D     18
     510      10                                                00010000D     19
     510            -213       1       1                               0D     20
     510      11                                                00010000D     21
     510            -213       1       1                               0D     22
     510      12                                                00010000D     23
     510            -213       1       1                               0D     24
     510      13                                                00010000D     25
     510            -213       1       1                               0D     26
     510      14                                                00010000D     27
     510            -213       1       1                               0D     28
     510      15                                                00010000D     29
     510            -213       1       1                               0D     30
     510      16                                                00010000D     31
     510            -213       1       1                               0D     32
     510      17                                                00010000D     33
     510            -213       1       1                               0D     34
     510      18                                                00010000D     35
     510            -213       1       1                               0D     36
     510      19                                                00010000D     37
     510            -213       1       1                               0D     38
     510      20                                                00010000D     39
     510            -213       1       1                               0D     40
     510      21                                                00010000D     41
     510            -213       1       1                               0D     42
     510      22                                                00010000D     43
     510            -213       1       1                               0D     44
     510      23                                                00010000D     45
     510            -213       1       1                               0D     46
     510      24                                                00010000D     47
     510            -213       1       1                               0D     48
     508      25                                                00010000D     49
     508                       1       1                               0D     50
     508      26                                                00010000D     51
     508                       1       1                               0D     52
     508      27                                                00010000D     53
     508                       1       1                               0D     54
     508      28                                                00010000D     55
     508                       1       1                               0D     56
     508      29                                                00010000D     57
     508                       1       1                               0D     58
     508      30                                                00010000D     59
     508                       1       1                               0D     60
     508      31                                                00010000D     61
     508                       1       1                               0D     62
     508      32                                                00010000D     63
     508                       1       1                               0D     64
     508      33                                                00010000D     65
     508                       1       1                               0D     66
     508      34                                                00010000D     67
     508                       1       1                               0D     68
     508      35                                                00010000D     69
     508                       1       1                               0D     70
     508      36                                                00010000D     71
     508                       1       1                               0D     72
     508      37                                                00010000D     73
     508                       1       1                               0D     74
     508      38                                                00010000D     75
     508                       1       1                               0D     76
     508      39                                                00010000D     77
     508                       1       1                               0D     78
     508      40                                                00010000D     79
     508                       1       1                               0D     80
     508      41                                                00010000D     81
     508                       1       1                               0D     82
     508      42                                                00010000D     83
     508                       1       1                               0D     84
     126      43                                                00010000D     85
     126       0               2       0                               0D     86
     126      45                                                00010000D     87
     126       0               2       0                               0D     88
     126      47                                                00010000D     89
     126       0               2       0                               0D     90
     126      49                                                00010000D     91
     126       0               2       0                               0D     92
     126      51                                                00010000D     93
     126       0               2       0                               0D     94
     126      53                                                00010000D     95
     126       0               2       0                               0D     96
     126      55                                                00010000D     97
     126       0               2       0                               0D     98
     126      57                                                00010000D     99
     126       0               2       0                               0D    100
     126      59                                                00010000D    101
     126       0               2       0                               0D    102
     126      61                                                00010000D    103
     126       0               2       0                               0D    104
     126      63                                                00010000D    105
     126       0               2       0                               0D    106
     126      65                                                00010000D    107
     126       0               2       0                               0D    108
     126      67                                                00010000D    109
     126       0               2       0                               0D    110
     126      69                                                00010000D    111
     126       0               2       0                               0D    112
     126      71                                                00010000D    113
     126       0               2       0                               0D    114
     126      73                                                00010000D    115
     126       0               2       0                               0D    116
     126      75                                                00010000D    117
     126       0               2       0                               0D    118
     126      77                                                00010000D    119
     126       0               2       0                               0D    120
     126      79                                                00010000D    121
     126       0               2       0                               0D    122
     126      81                                                00010000D    123
     126       0               2       0                               0D    124
     126      83                                                00010000D    125
     126       0               2       0                               0D    126
     126      85                                                00010000D    127
     126       0               2       0                               0D    128
     126      87                                                00010000D    129
     126       0               2       0                               0D    130
     126      89                                                00010000D    131
     126       0               2       0                               0D    132
     126      91                                                00010000D    133
     126       0               2       0                               0D    134
     126      93                                                00010000D    135
     126       0               2       0                               0D    136
     126      95                                                00010000D    137
     126       0               2       0                               0D    138
     126      97                                                00010000D    139
     126       0               2       0                               0D    140
     126      99                                                00010000D    141
     126       0               2       0                               0D    142
     126     101                                                00010000D    143
     126       0               2       0                               0D    144
     126     103                                                00010000D    145
     126       0               2       0                               0D    146
     126     105                                                00010000D    147
     126       0               2       0                               0D    148
     126     107                                                00010000D    149
     126       0               2       0                               0D    150
     126     109                                                00010000D    151
     126       0               2       0                               0D    152
     126     111                                                00010000D    153
     126       0               2       0                               0D    154
     126     113                                                00010000D    155
     126       0               2       0                               0D    156
     128     115                                                00010000D    157
     128       0    -213       4       0                               0D    158
     128     119                                                00010000D    159
     128       0    -213       5       0                               0D    160
     128     124                                                00010000D    161
     128       0    -213       4       0                               0D    162
     128     128                                                00010000D    163
     128       0    -213       3       0                               0D    164
     128     131                                                00010000D    165
     128       0    -213       5       0                               0D    166
     128     136                                                00010000D    167
     128       0    -213       4       0                               0D    168
     128     140                                                00010000D    169
     128       0    -213       3       0                               0D    170
     128     143                                                00010000D    171
     128       0    -213       4       0                               0D    172
     128     147                                                00010000D    173
     128       0    -213       3       0                               0D    174
     128     150                                                00010000D    175
     128       0    -213       3       0                               0D    176
     128     153                                                00010000D    177
     128       0    -213       4       0                               0D    178
     128     157                                                00010000D    179
     128       0    -213       4       0                               0D    180
     128     161                                                00010000D    181
     128       0    -213       4       0                               0D    182
     128     165                                                00010000D    183
     128       0    -213       3       0                               0D    184
     128     168                                                00010000D    185
     128       0    -213       3       0                               0D    186
     128     171                                                00010000D    187
     128       0    -213       3       0                               0D    188
     128     174                                                00010000D    189
     128       0    -213       4       0                               0D    190
     128     178                                                00010000D    191
     128       0    -213       4       0                               0D    192
     502     182                                                00010000D    193
     502                       3       1                               0D    194
     502     185                                                00010000D    195
     502                       2       1                               0D    196
     502     187                                                00010000D    197
     502                       2       1                               0D    198
     504     189                                                00010001D    199
     504                       4       1                               0D    200
     504     193                                                00010001D    201
     504                       4       1                               0D    202
     504     197                                                00010001D    203
     504                       4       1                               0D    204
     406     201                                                00000000D    205
     406                       1      15                               0D    206
     406     202                                                00000000D    207
     406                       1      15                               0D    208
     406     203                                                00000000D    209
     406                       1      15                               0D    210
     406     204                       0                        00000000D    211
     406            -213       1       3                               0D    212
     314     205                                                00000200D    213
     314                       1       0                               0D    214
186,7,1,0,0,1,205;                                                     1P      1
186,9,1,0,0,1,207;                                                     3P      2
186,11,1,0,0,1,209;                                                    5P      3
514,6,13,1,15,1,17,1,19,1,21,1,23,1;                                   7P      4
514,6,25,1,27,1,29,1,31,1,33,1,35,1;                                   9P      5
514,6,37,1,39,1,41,1,43,1,45,1,47,1;                                  11P      6
510,157,1,1,49;                                                       13P      7
510,159,1,1,51;                                                       15P      8
510,161,1,1,53;                                                       17P      9
510,163,1,1,55;                                                       19P     10
510,165,1,1,57;                                                       21P     11
510,167,1,1,59;                                                       23P     12
510,169,1,1,61;                                                       25P     13
510,171,1,1,63;                                                       27P     14
510,173,1,1,65;                                                       29P     15
510,175,1,1,67;                                                       31P     16
510,177,1,1,69;                                                       33P     17
510,179,1,1,71;                                                       35P     18
510,181,1,1,73;                                                       37P     19
510,183,1,1,75;                                                       39P     20
510,185,1,1,77;                                                       41P     21
510,187,1,1,79;                                                       43P     22
510,189,1,1,81;                                                       45P     23
510,191,1,1,83;                                                       47P     24
508,4,0,199,1,1,0,0,199,2,1,0,0,199,3,0,0,0,199,4,0,0;                49P     25
508,4,0,199,5,1,0,0,199,4,1,0,0,199,6,0,0,0,199,7,0,0;                51P     26
508,4,0,199,8,1,0,0,199,7,1,0,0,199,9,0,0,0,199,10,0,0;               53P     27
508,4,0,199,11,1,0,0,199,10,1,0,0,199,12,0,0,0,199,2,0,0;             55P     28
508,4,0,199,12,1,0,0,199,9,1,0,0,199,6,1,0,0,199,3,1,0;               57P     29
508,4,0,199,11,0,0,0,199,1,0,0,0,199,5,0,0,0,199,8,0,0;               59P     30
508,4,0,201,1,1,0,0,201,2,1,0,0,201,3,0,0,0,201,4,0,0;                61P     31
508,4,0,201,5,1,0,0,201,4,1,0,0,201,6,0,0,0,201,7,0,0;                63P     32
508,4,0,201,8,1,0,0,201,7,1,0,0,201,9,0,0,0,201,10,0,0;               65P     33
508,4,0,201,11,1,0,0,201,10,1,0,0,201,12,0,0,0,201,2,0,0;             67P     34
508,4,0,201,12,1,0,0,201,9,1,0,0,201,6,1,0,0,201,3,1,0;               69P     35
508,4,0,201,11,0,0,0,201,1,0,0,0,201,5,0,0,0,201,8,0,0;               71P     36
508,4,0,203,1,1,0,0,203,2,1,0,0,203,3,0,0,0,203,4,0,0;                73P     37
508,4,0,203,5,1,0,0,203,4,1,0,0,203,6,0,0,0,203,7,0,0;                75P     38
508,4,0,203,8,1,0,0,203,7,1,0,0,203,9,0,0,0,203,10,0,0;               77P     39
508,4,0,203,11,1,0,0,203,10,1,0,0,203,12,0,0,0,203,2,0,0;             79P     40
508,4,0,203,12,1,0,0,203,9,1,0,0,203,6,1,0,0,203,3,1,0;               81P     41
508,4,0,203,11,0,0,0,203,1,0,0,0,203,5,0,0,0,203,8,0,0;               83P     42
126,1,1,0,0,1,0,0.,0.,3.,3.,1.,1.,4.44089209850063D-16,0.,0.,3.,      85P     43
0.,0.,0.,3.,0.,0.,0.;                                                 85P     44
126,1,1,0,0,1,0,0.,0.,3.,3.,1.,1.,3.,0.,0.,3.,0.,3.,0.,3.,0.,0.,      87P     45
0.;                                                                   87P     46
126,1,1,0,0,1,0,0.,0.,3.,3.,1.,1.,4.44089209850063D-16,0.,3.,3.,      89P     47
0.,3.,0.,3.,0.,0.,0.;                                                 89P     48
126,1,1,0,0,1,0,0.,0.,3.,3.,1.,1.,4.44089209850063D-16,0.,0.,         91P     49
4.44089209850063D-16,0.,3.,0.,3.,0.,0.,0.;                            91P     50
126,1,1,0,0,1,0,0.,0.,3.,3.,1.,1.,4.44089209850063D-16,3.,0.,         93P     51
4.44089209850063D-16,0.,0.,0.,3.,0.,0.,0.;                            93P     52
126,1,1,0,0,1,0,0.,0.,3.,3.,1.,1.,4.44089209850063D-16,3.,3.,         95P     53
4.44089209850063D-16,0.,3.,0.,3.,0.,0.,0.;                            95P     54
126,1,1,0,0,1,0,0.,0.,3.,3.,1.,1.,4.44089209850063D-16,3.,0.,         97P     55
4.44089209850063D-16,3.,3.,0.,3.,0.,0.,0.;                            97P     56
126,1,1,0,0,1,0,0.,0.,3.,3.,1.,1.,3.,3.,0.,4.44089209850063D-16,      99P     57
3.,0.,0.,3.,0.,0.,0.;                                                 99P     58
126,1,1,0,0,1,0,0.,0.,3.,3.,1.,1.,3.,3.,3.,4.44089209850063D-16,     101P     59
3.,3.,0.,3.,0.,0.,0.;                                                101P     60
126,1,1,0,0,1,0,0.,0.,3.,3.,1.,1.,3.,3.,0.,3.,3.,3.,0.,3.,0.,0.,     103P     61
0.;                                                                  103P     62
126,1,1,0,0,1,0,0.,0.,3.,3.,1.,1.,3.,0.,0.,3.,3.,0.,0.,3.,0.,0.,     105P     63
0.;                                                                  105P     64
126,1,1,0,0,1,0,0.,0.,3.,3.,1.,1.,3.,0.,3.,3.,3.,3.,0.,3.,0.,0.,     107P     65
0.;                                                                  107P     66
126,1,1,0,0,1,0,0.,0.,3.,3.,1.,1.,3.,0.,0.,6.,0.,0.,0.,3.,0.,0.,     109P     67
0.;                                                                  109P     68
126,1,1,0,0,1,0,0.,0.,4.,4.,1.,1.,6.,0.,0.,6.,0.,4.,0.,4.,0.,0.,     111P     69
0.;                                                                  111P     70
126,1,1,0,0,1,0,0.,0.,3.,3.,1.,1.,3.,0.,4.,6.,0.,4.,0.,3.,0.,0.,     113P     71
0.;                                                                  113P     72
126,1,1,0,0,1,0,0.,0.,4.,4.,1.,1.,3.,0.,0.,3.,0.,4.,0.,4.,0.,0.,     115P     73
0.;                                                                  115P     74
126,1,1,0,0,1,0,0.,0.,3.,3.,1.,1.,3.,3.,0.,3.,0.,0.,0.,3.,0.,0.,     117P     75
0.;                                                                  117P     76
126,1,1,0,0,1,0,0.,0.,3.,3.,1.,1.,3.,3.,4.,3.,0.,4.,0.,3.,0.,0.,     119P     77
0.;                                                                  119P     78
126,1,1,0,0,1,0,0.,0.,4.,4.,1.,1.,3.,3.,0.,3.,3.,4.,0.,4.,0.,0.,     121P     79
0.;                                                                  121P     80
126,1,1,0,0,1,0,0.,0.,3.,3.,1.,1.,6.,3.,0.,3.,3.,0.,0.,3.,0.,0.,     123P     81
0.;                                                                  123P     82
126,1,1,0,0,1,0,0.,0.,3.,3.,1.,1.,6.,3.,4.,3.,3.,4.,0.,3.,0.,0.,     125P     83
0.;                                                                  125P     84
126,1,1,0,0,1,0,0.,0.,4.,4.,1.,1.,6.,3.,0.,6.,3.,4.,0.,4.,0.,0.,     127P     85
0.;                                                                  127P     86
126,1,1,0,0,1,0,0.,0.,3.,3.,1.,1.,6.,0.,0.,6.,3.,0.,0.,3.,0.,0.,     129P     87
0.;                                                                  129P     88
126,1,1,0,0,1,0,0.,0.,3.,3.,1.,1.,6.,0.,4.,6.,3.,4.,0.,3.,0.,0.,     131P     89
0.;                                                                  131P     90
126,1,1,0,0,1,0,0.,0.,3.,3.,1.,1.,6.,3.,0.,6.,0.,0.,0.,3.,0.,0.,     133P     91
0.;                                                                  133P     92
126,1,1,0,0,1,0,0.,0.,2.,2.,1.,1.,6.,0.,0.,6.,0.,2.,0.,2.,0.,0.,     135P     93
0.;                                                                  135P     94
126,1,1,0,0,1,0,0.,0.,3.,3.,1.,1.,6.,3.,2.,6.,0.,2.,0.,3.,0.,0.,     137P     95
0.;                                                                  137P     96
126,1,1,0,0,1,0,0.,0.,2.,2.,1.,1.,6.,3.,0.,6.,3.,2.,0.,2.,0.,0.,     139P     97
0.;                                                                  139P     98
126,1,1,0,0,1,0,0.,0.,3.,3.,1.,1.,9.,3.,0.,6.,3.,0.,0.,3.,0.,0.,     141P     99
0.;                                                                  141P    100
126,1,1,0,0,1,0,0.,0.,3.,3.,1.,1.,9.,3.,2.,6.,3.,2.,0.,3.,0.,0.,     143P    101
0.;                                                                  143P    102
126,1,1,0,0,1,0,0.,0.,2.,2.,1.,1.,9.,3.,0.,9.,3.,2.,0.,2.,0.,0.,     145P    103
0.;                                                                  145P    104
126,1,1,0,0,1,0,0.,0.,3.,3.,1.,1.,9.,0.,0.,9.,3.,0.,0.,3.,0.,0.,     147P    105
0.;                                                                  147P    106
126,1,1,0,0,1,0,0.,0.,3.,3.,1.,1.,9.,0.,2.,9.,3.,2.,0.,3.,0.,0.,     149P    107
0.;                                                                  149P    108
126,1,1,0,0,1,0,0.,0.,2.,2.,1.,1.,9.,0.,0.,9.,0.,2.,0.,2.,0.,0.,     151P    109
0.;                                                                  151P    110
126,1,1,0,0,1,0,0.,0.,3.,3.,1.,1.,6.,0.,0.,9.,0.,0.,0.,3.,0.,0.,     153P    111
0.;                                                                  153P    112
126,1,1,0,0,1,0,0.,0.,3.,3.,1.,1.,6.,0.,2.,9.,0.,2.,0.,3.,0.,0.,     155P    113
0.;                                                                  155P    114
128,1,1,1,1,0,0,1,0,0,-0.001,-0.001,3.001,3.001,-0.001,-0.001,       157P    115
3.001,3.001,1.,1.,1.,1.,-0.000999999999999556,0.,-0.001,3.001,       157P    116
0.,-0.001,-0.000999999999999556,0.,3.001,3.001,0.,3.001,-0.001,      157P    117
3.001,-0.001,3.001;                                                  157P    118
128,1,1,1,1,0,0,1,0,0,-0.001,-0.001,3.001,3.001,-0.001,-0.001,       159P    119
3.001,3.001,1.,1.,1.,1.,4.44089209850063D-16,3.001,-0.001,           159P    120
4.44089209850063D-16,-0.00099999999999989,-0.001,                    159P    121
4.44089209850063D-16,3.001,3.001,4.44089209850063D-16,               159P    122
-0.00099999999999989,3.001,-0.001,3.001,-0.001,3.001;                159P    123
128,1,1,1,1,0,0,1,0,0,-0.001,-0.001,3.001,3.001,-0.001,-0.001,       161P    124
3.001,3.001,1.,1.,1.,1.,3.001,3.,-0.001,-0.000999999999999446,       161P    125
3.,-0.001,3.001,3.,3.001,-0.000999999999999446,3.,3.001,-0.001,      161P    126
3.001,-0.001,3.001;                                                  161P    127
128,1,1,1,1,0,0,1,0,0,-0.001,-0.001,3.001,3.001,-0.001,-0.001,       163P    128
3.001,3.001,1.,1.,1.,1.,3.,-0.001,-0.001,3.,3.001,-0.001,3.,         163P    129
-0.001,3.001,3.,3.001,3.001,-0.001,3.001,-0.001,3.001;               163P    130
128,1,1,1,1,0,0,1,0,0,-1.501,-1.501,1.501,1.501,-1.501,-1.501,       165P    131
1.501,1.501,1.,1.,1.,1.,-0.000999999999999446,                       165P    132
-0.00099999999999989,3.,3.001,-0.00099999999999989,3.,               165P    133
-0.000999999999999446,3.001,3.,3.001,3.001,3.,-1.501,1.501,          165P    134
-1.501,1.501;                                                        165P    135
128,1,1,1,1,0,0,1,0,0,-1.501,-1.501,1.501,1.501,-1.501,-1.501,       167P    136
1.501,1.501,1.,1.,1.,1.,3.001,-0.00099999999999989,0.,               167P    137
-0.000999999999999446,-0.00099999999999989,0.,3.001,3.001,0.,        167P    138
-0.000999999999999446,3.001,0.,-1.501,1.501,-1.501,1.501;            167P    139
128,1,1,1,1,0,0,1,0,0,-0.001,-0.001,3.001,3.001,-0.001,-0.001,       169P    140
4.001,4.001,1.,1.,1.,1.,2.999,0.,-0.001,6.001,0.,-0.001,2.999,       169P    141
0.,4.001,6.001,0.,4.001,-0.001,3.001,-0.001,4.001;                   169P    142
128,1,1,1,1,0,0,1,0,0,-0.001,-0.001,3.001,3.001,-0.001,-0.001,       171P    143
4.001,4.001,1.,1.,1.,1.,3.,3.001,-0.001,3.,-0.00099999999999989,     171P    144
-0.001,3.,3.001,4.001,3.,-0.00099999999999989,4.001,-0.001,          171P    145
3.001,-0.001,4.001;                                                  171P    146
128,1,1,1,1,0,0,1,0,0,-0.001,-0.001,3.001,3.001,-0.001,-0.001,       173P    147
4.001,4.001,1.,1.,1.,1.,6.001,3.,-0.001,2.999,3.,-0.001,6.001,       173P    148
3.,4.001,2.999,3.,4.001,-0.001,3.001,-0.001,4.001;                   173P    149
128,1,1,1,1,0,0,1,0,0,-0.001,-0.001,3.001,3.001,-0.001,-0.001,       175P    150
4.001,4.001,1.,1.,1.,1.,6.,-0.001,-0.001,6.,3.001,-0.001,6.,         175P    151
-0.001,4.001,6.,3.001,4.001,-0.001,3.001,-0.001,4.001;               175P    152
128,1,1,1,1,0,0,1,0,0,-1.501,-1.501,1.501,1.501,-1.501,-1.501,       177P    153
1.501,1.501,1.,1.,1.,1.,2.999,-0.00099999999999989,4.,6.001,         177P    154
-0.00099999999999989,4.,2.999,3.001,4.,6.001,3.001,4.,-1.501,        177P    155
1.501,-1.501,1.501;                                                  177P    156
128,1,1,1,1,0,0,1,0,0,-1.501,-1.501,1.501,1.501,-1.501,-1.501,       179P    157
1.501,1.501,1.,1.,1.,1.,6.001,-0.00099999999999989,0.,2.999,         179P    158
-0.00099999999999989,0.,6.001,3.001,0.,2.999,3.001,0.,-1.501,        179P    159
1.501,-1.501,1.501;                                                  179P    160
128,1,1,1,1,0,0,1,0,0,-0.001,-0.001,3.001,3.001,-0.001,-0.001,       181P    161
2.001,2.001,1.,1.,1.,1.,6.,3.001,-0.001,6.,-0.00099999999999989,     181P    162
-0.001,6.,3.001,2.001,6.,-0.00099999999999989,2.001,-0.001,          181P    163
3.001,-0.001,2.001;                                                  181P    164
128,1,1,1,1,0,0,1,0,0,-0.001,-0.001,3.001,3.001,-0.001,-0.001,       183P    165
2.001,2.001,1.,1.,1.,1.,9.001,3.,-0.001,5.999,3.,-0.001,9.001,       183P    166
3.,2.001,5.999,3.,2.001,-0.001,3.001,-0.001,2.001;                   183P    167
128,1,1,1,1,0,0,1,0,0,-0.001,-0.001,3.001,3.001,-0.001,-0.001,       185P    168
2.001,2.001,1.,1.,1.,1.,9.,-0.001,-0.001,9.,3.001,-0.001,9.,         185P    169
-0.001,2.001,9.,3.001,2.001,-0.001,3.001,-0.001,2.001;               185P    170
128,1,1,1,1,0,0,1,0,0,-0.001,-0.001,3.001,3.001,-0.001,-0.001,       187P    171
2.001,2.001,1.,1.,1.,1.,5.999,0.,-0.001,9.001,0.,-0.001,5.999,       187P    172
0.,2.001,9.001,0.,2.001,-0.001,3.001,-0.001,2.001;                   187P    173
128,1,1,1,1,0,0,1,0,0,-1.501,-1.501,1.501,1.501,-1.501,-1.501,       189P    174
1.501,1.501,1.,1.,1.,1.,5.999,-0.00099999999999989,2.,9.001,         189P    175
-0.00099999999999989,2.,5.999,3.001,2.,9.001,3.001,2.,-1.501,        189P    176
1.501,-1.501,1.501;                                                  189P    177
128,1,1,1,1,0,0,1,0,0,-1.501,-1.501,1.501,1.501,-1.501,-1.501,       191P    178
1.501,1.501,1.,1.,1.,1.,9.001,-0.00099999999999989,0.,5.999,         191P    179
-0.00099999999999989,0.,9.001,3.001,0.,5.999,3.001,0.,-1.501,        191P    180
1.501,-1.501,1.501;                                                  191P    181
502,8,4.44089209850063D-16,0.,0.,3.,0.,0.,3.,0.,3.,                  193P    182
4.44089209850063D-16,0.,3.,4.44089209850063D-16,3.,0.,               193P    183
4.44089209850063D-16,3.,3.,3.,3.,0.,3.,3.,3.;                        193P    184
502,8,3.,0.,0.,6.,0.,0.,6.,0.,4.,3.,0.,4.,3.,3.,0.,3.,3.,4.,6.,      195P    185
3.,0.,6.,3.,4.;                                                      195P    186
502,8,6.,3.,0.,6.,0.,0.,6.,0.,2.,6.,3.,2.,9.,3.,0.,9.,3.,2.,9.,      197P    187
0.,0.,9.,0.,2.;                                                      197P    188
504,12,85,193,1,193,2,87,193,2,193,3,89,193,4,193,3,91,193,1,        199P    189
193,4,93,193,5,193,1,95,193,6,193,4,97,193,5,193,6,99,193,7,193,     199P    190
5,101,193,8,193,6,103,193,7,193,8,105,193,2,193,7,107,193,3,193,     199P    191
8;                                                                   199P    192
504,12,109,195,1,195,2,111,195,2,195,3,113,195,4,195,3,115,195,      201P    193
1,195,4,117,195,5,195,1,119,195,6,195,4,121,195,5,195,6,123,195,     201P    194
7,195,5,125,195,8,195,6,127,195,7,195,8,129,195,2,195,7,131,195,     201P    195
3,195,8;                                                             201P    196
504,12,133,197,1,197,2,135,197,2,197,3,137,197,4,197,3,139,197,      203P    197
1,197,4,141,197,5,197,1,143,197,6,197,4,145,197,5,197,6,147,197,     203P    198
7,197,5,149,197,8,197,6,151,197,7,197,8,153,197,2,197,7,155,197,     203P    199
3,197,8;                                                             203P    200
406,1,2H64;                                                          205P    201
406,1,2H68;                                                          207P    202
406,1,2H6C;                                                          209P    203
406,2,0,1H0;                                                         211P    204
314,100.,100.,100.,;                                                 213P    205
S      1G      4D    214P    205                                        T      1
