                                                                        S      1
,,,25Hteste_discretizacao_cubos,22HAutoCAD 2024 - English,62HAutodesk TrG      1
anslation Framework DWG producer (atf_dwg_producer),32,38,7,99,15,,1.,2,G      2
2HMM,1,0.08,15H20240727.141128,0.01,10000.,,7Hunknown,11,0,15H20240727.1G      3
40329;                                                                  G      4
     186       1                       0                        00000000D      1
     186            -143       1       0                               0D      2
     186       2                       0                        00000000D      3
     186            -143       1       0                               0D      4
     514       3                                                00010000D      5
     514                       1       1                               0D      6
     514       4                                                00010000D      7
     514                       1       1                               0D      8
     510       5                                                00010000D      9
     510            -143       1       1                               0D     10
     510       6                                                00010000D     11
     510            -143       1       1                               0D     12
     510       7                                                00010000D     13
     510            -143       1       1                               0D     14
     510       8                                                00010000D     15
     510            -143       1       1                               0D     16
     510       9                                                00010000D     17
     510            -143       1       1                               0D     18
     510      10                                                00010000D     19
     510            -143       1       1                               0D     20
     510      11                                                00010000D     21
     510            -143       1       1                               0D     22
     510      12                                                00010000D     23
     510            -143       1       1                               0D     24
     510      13                                                00010000D     25
     510            -143       1       1                               0D     26
     510      14                                                00010000D     27
     510            -143       1       1                               0D     28
     510      15                                                00010000D     29
     510            -143       1       1                               0D     30
     510      16                                                00010000D     31
     510            -143       1       1                               0D     32
     508      17                                                00010000D     33
     508                       1       1                               0D     34
     508      18                                                00010000D     35
     508                       1       1                               0D     36
     508      19                                                00010000D     37
     508                       1       1                               0D     38
     508      20                                                00010000D     39
     508                       1       1                               0D     40
     508      21                                                00010000D     41
     508                       1       1                               0D     42
     508      22                                                00010000D     43
     508                       1       1                               0D     44
     508      23                                                00010000D     45
     508                       1       1                               0D     46
     508      24                                                00010000D     47
     508                       1       1                               0D     48
     508      25                                                00010000D     49
     508                       1       1                               0D     50
     508      26                                                00010000D     51
     508                       1       1                               0D     52
     508      27                                                00010000D     53
     508                       1       1                               0D     54
     508      28                                                00010000D     55
     508                       1       1                               0D     56
     126      29                                                00010000D     57
     126       0               2       0                               0D     58
     126      31                                                00010000D     59
     126       0               2       0                               0D     60
     126      33                                                00010000D     61
     126       0               2       0                               0D     62
     126      35                                                00010000D     63
     126       0               2       0                               0D     64
     126      37                                                00010000D     65
     126       0               2       0                               0D     66
     126      39                                                00010000D     67
     126       0               2       0                               0D     68
     126      41                                                00010000D     69
     126       0               2       0                               0D     70
     126      43                                                00010000D     71
     126       0               2       0                               0D     72
     126      45                                                00010000D     73
     126       0               2       0                               0D     74
     126      47                                                00010000D     75
     126       0               2       0                               0D     76
     126      49                                                00010000D     77
     126       0               2       0                               0D     78
     126      51                                                00010000D     79
     126       0               2       0                               0D     80
     126      53                                                00010000D     81
     126       0               2       0                               0D     82
     126      55                                                00010000D     83
     126       0               2       0                               0D     84
     126      57                                                00010000D     85
     126       0               2       0                               0D     86
     126      59                                                00010000D     87
     126       0               2       0                               0D     88
     126      61                                                00010000D     89
     126       0               2       0                               0D     90
     126      63                                                00010000D     91
     126       0               2       0                               0D     92
     126      65                                                00010000D     93
     126       0               2       0                               0D     94
     126      67                                                00010000D     95
     126       0               2       0                               0D     96
     126      69                                                00010000D     97
     126       0               2       0                               0D     98
     126      71                                                00010000D     99
     126       0               2       0                               0D    100
     126      73                                                00010000D    101
     126       0               2       0                               0D    102
     126      75                                                00010000D    103
     126       0               2       0                               0D    104
     128      77                                                00010000D    105
     128       0    -143       3       0                               0D    106
     128      80                                                00010000D    107
     128       0    -143       4       0                               0D    108
     128      84                                                00010000D    109
     128       0    -143       3       0                               0D    110
     128      87                                                00010000D    111
     128       0    -143       3       0                               0D    112
     128      90                                                00010000D    113
     128       0    -143       4       0                               0D    114
     128      94                                                00010000D    115
     128       0    -143       4       0                               0D    116
     128      98                                                00010000D    117
     128       0    -143       4       0                               0D    118
     128     102                                                00010000D    119
     128       0    -143       5       0                               0D    120
     128     107                                                00010000D    121
     128       0    -143       4       0                               0D    122
     128     111                                                00010000D    123
     128       0    -143       3       0                               0D    124
     128     114                                                00010000D    125
     128       0    -143       5       0                               0D    126
     128     119                                                00010000D    127
     128       0    -143       4       0                               0D    128
     502     123                                                00010000D    129
     502                       2       1                               0D    130
     502     125                                                00010000D    131
     502                       3       1                               0D    132
     504     128                                                00010001D    133
     504                       3       1                               0D    134
     504     131                                                00010001D    135
     504                       3       1                               0D    136
     406     134                                                00000000D    137
     406                       1      15                               0D    138
     406     135                                                00000000D    139
     406                       1      15                               0D    140
     406     136                       0                        00000000D    141
     406            -143       1       3                               0D    142
     314     137                                                00000200D    143
     314                       1       0                               0D    144
186,5,1,0,0,1,137;                                                     1P      1
186,7,1,0,0,1,139;                                                     3P      2
514,6,9,1,11,1,13,1,15,1,17,1,19,1;                                    5P      3
514,6,21,1,23,1,25,1,27,1,29,1,31,1;                                   7P      4
510,105,1,1,33;                                                        9P      5
510,107,1,1,35;                                                       11P      6
510,109,1,1,37;                                                       13P      7
510,111,1,1,39;                                                       15P      8
510,113,1,1,41;                                                       17P      9
510,115,1,1,43;                                                       19P     10
510,117,1,1,45;                                                       21P     11
510,119,1,1,47;                                                       23P     12
510,121,1,1,49;                                                       25P     13
510,123,1,1,51;                                                       27P     14
510,125,1,1,53;                                                       29P     15
510,127,1,1,55;                                                       31P     16
508,4,0,133,1,1,0,0,133,2,1,0,0,133,3,0,0,0,133,4,0,0;                33P     17
508,4,0,133,5,1,0,0,133,4,1,0,0,133,6,0,0,0,133,7,0,0;                35P     18
508,4,0,133,8,1,0,0,133,7,1,0,0,133,9,0,0,0,133,10,0,0;               37P     19
508,4,0,133,11,1,0,0,133,10,1,0,0,133,12,0,0,0,133,2,0,0;             39P     20
508,4,0,133,12,1,0,0,133,9,1,0,0,133,6,1,0,0,133,3,1,0;               41P     21
508,4,0,133,11,0,0,0,133,1,0,0,0,133,5,0,0,0,133,8,0,0;               43P     22
508,4,0,135,1,1,0,0,135,2,1,0,0,135,3,0,0,0,135,4,0,0;                45P     23
508,4,0,135,5,1,0,0,135,4,1,0,0,135,6,0,0,0,135,7,0,0;                47P     24
508,4,0,135,8,1,0,0,135,7,1,0,0,135,9,0,0,0,135,10,0,0;               49P     25
508,4,0,135,11,1,0,0,135,10,1,0,0,135,12,0,0,0,135,2,0,0;             51P     26
508,4,0,135,12,1,0,0,135,9,1,0,0,135,6,1,0,0,135,3,1,0;               53P     27
508,4,0,135,11,0,0,0,135,1,0,0,0,135,5,0,0,0,135,8,0,0;               55P     28
126,1,1,0,0,1,0,0.,0.,3.,3.,1.,1.,3.,0.,0.,6.,0.,0.,0.,3.,0.,0.,      57P     29
0.;                                                                   57P     30
126,1,1,0,0,1,0,0.,0.,4.,4.,1.,1.,6.,0.,0.,6.,0.,4.,0.,4.,0.,0.,      59P     31
0.;                                                                   59P     32
126,1,1,0,0,1,0,0.,0.,3.,3.,1.,1.,3.,0.,4.,6.,0.,4.,0.,3.,0.,0.,      61P     33
0.;                                                                   61P     34
126,1,1,0,0,1,0,0.,0.,4.,4.,1.,1.,3.,0.,0.,3.,0.,4.,0.,4.,0.,0.,      63P     35
0.;                                                                   63P     36
126,1,1,0,0,1,0,0.,0.,3.,3.,1.,1.,3.,3.,0.,3.,0.,0.,0.,3.,0.,0.,      65P     37
0.;                                                                   65P     38
126,1,1,0,0,1,0,0.,0.,3.,3.,1.,1.,3.,3.,4.,3.,0.,4.,0.,3.,0.,0.,      67P     39
0.;                                                                   67P     40
126,1,1,0,0,1,0,0.,0.,4.,4.,1.,1.,3.,3.,0.,3.,3.,4.,0.,4.,0.,0.,      69P     41
0.;                                                                   69P     42
126,1,1,0,0,1,0,0.,0.,3.,3.,1.,1.,6.,3.,0.,3.,3.,0.,0.,3.,0.,0.,      71P     43
0.;                                                                   71P     44
126,1,1,0,0,1,0,0.,0.,3.,3.,1.,1.,6.,3.,4.,3.,3.,4.,0.,3.,0.,0.,      73P     45
0.;                                                                   73P     46
126,1,1,0,0,1,0,0.,0.,4.,4.,1.,1.,6.,3.,0.,6.,3.,4.,0.,4.,0.,0.,      75P     47
0.;                                                                   75P     48
126,1,1,0,0,1,0,0.,0.,3.,3.,1.,1.,6.,0.,0.,6.,3.,0.,0.,3.,0.,0.,      77P     49
0.;                                                                   77P     50
126,1,1,0,0,1,0,0.,0.,3.,3.,1.,1.,6.,0.,4.,6.,3.,4.,0.,3.,0.,0.,      79P     51
0.;                                                                   79P     52
126,1,1,0,0,1,0,0.,0.,3.,3.,1.,1.,4.44089209850063D-16,0.,0.,3.,      81P     53
0.,0.,0.,3.,0.,0.,0.;                                                 81P     54
126,1,1,0,0,1,0,0.,0.,3.,3.,1.,1.,3.,0.,0.,3.,0.,3.,0.,3.,0.,0.,      83P     55
0.;                                                                   83P     56
126,1,1,0,0,1,0,0.,0.,3.,3.,1.,1.,4.44089209850063D-16,0.,3.,3.,      85P     57
0.,3.,0.,3.,0.,0.,0.;                                                 85P     58
126,1,1,0,0,1,0,0.,0.,3.,3.,1.,1.,4.44089209850063D-16,0.,0.,         87P     59
4.44089209850063D-16,0.,3.,0.,3.,0.,0.,0.;                            87P     60
126,1,1,0,0,1,0,0.,0.,3.,3.,1.,1.,4.44089209850063D-16,3.,0.,         89P     61
4.44089209850063D-16,0.,0.,0.,3.,0.,0.,0.;                            89P     62
126,1,1,0,0,1,0,0.,0.,3.,3.,1.,1.,4.44089209850063D-16,3.,3.,         91P     63
4.44089209850063D-16,0.,3.,0.,3.,0.,0.,0.;                            91P     64
126,1,1,0,0,1,0,0.,0.,3.,3.,1.,1.,4.44089209850063D-16,3.,0.,         93P     65
4.44089209850063D-16,3.,3.,0.,3.,0.,0.,0.;                            93P     66
126,1,1,0,0,1,0,0.,0.,3.,3.,1.,1.,3.,3.,0.,4.44089209850063D-16,      95P     67
3.,0.,0.,3.,0.,0.,0.;                                                 95P     68
126,1,1,0,0,1,0,0.,0.,3.,3.,1.,1.,3.,3.,3.,4.44089209850063D-16,      97P     69
3.,3.,0.,3.,0.,0.,0.;                                                 97P     70
126,1,1,0,0,1,0,0.,0.,3.,3.,1.,1.,3.,3.,0.,3.,3.,3.,0.,3.,0.,0.,      99P     71
0.;                                                                   99P     72
126,1,1,0,0,1,0,0.,0.,3.,3.,1.,1.,3.,0.,0.,3.,3.,0.,0.,3.,0.,0.,     101P     73
0.;                                                                  101P     74
126,1,1,0,0,1,0,0.,0.,3.,3.,1.,1.,3.,0.,3.,3.,3.,3.,0.,3.,0.,0.,     103P     75
0.;                                                                  103P     76
128,1,1,1,1,0,0,1,0,0,-0.001,-0.001,3.001,3.001,-0.001,-0.001,       105P     77
4.001,4.001,1.,1.,1.,1.,2.999,0.,-0.001,6.001,0.,-0.001,2.999,       105P     78
0.,4.001,6.001,0.,4.001,-0.001,3.001,-0.001,4.001;                   105P     79
128,1,1,1,1,0,0,1,0,0,-0.001,-0.001,3.001,3.001,-0.001,-0.001,       107P     80
4.001,4.001,1.,1.,1.,1.,3.,3.001,-0.001,3.,-0.00099999999999989,     107P     81
-0.001,3.,3.001,4.001,3.,-0.00099999999999989,4.001,-0.001,          107P     82
3.001,-0.001,4.001;                                                  107P     83
128,1,1,1,1,0,0,1,0,0,-0.001,-0.001,3.001,3.001,-0.001,-0.001,       109P     84
4.001,4.001,1.,1.,1.,1.,6.001,3.,-0.001,2.999,3.,-0.001,6.001,       109P     85
3.,4.001,2.999,3.,4.001,-0.001,3.001,-0.001,4.001;                   109P     86
128,1,1,1,1,0,0,1,0,0,-0.001,-0.001,3.001,3.001,-0.001,-0.001,       111P     87
4.001,4.001,1.,1.,1.,1.,6.,-0.001,-0.001,6.,3.001,-0.001,6.,         111P     88
-0.001,4.001,6.,3.001,4.001,-0.001,3.001,-0.001,4.001;               111P     89
128,1,1,1,1,0,0,1,0,0,-1.501,-1.501,1.501,1.501,-1.501,-1.501,       113P     90
1.501,1.501,1.,1.,1.,1.,2.999,-0.00099999999999989,4.,6.001,         113P     91
-0.00099999999999989,4.,2.999,3.001,4.,6.001,3.001,4.,-1.501,        113P     92
1.501,-1.501,1.501;                                                  113P     93
128,1,1,1,1,0,0,1,0,0,-1.501,-1.501,1.501,1.501,-1.501,-1.501,       115P     94
1.501,1.501,1.,1.,1.,1.,6.001,-0.00099999999999989,0.,2.999,         115P     95
-0.00099999999999989,0.,6.001,3.001,0.,2.999,3.001,0.,-1.501,        115P     96
1.501,-1.501,1.501;                                                  115P     97
128,1,1,1,1,0,0,1,0,0,-0.001,-0.001,3.001,3.001,-0.001,-0.001,       117P     98
3.001,3.001,1.,1.,1.,1.,-0.000999999999999556,0.,-0.001,3.001,       117P     99
0.,-0.001,-0.000999999999999556,0.,3.001,3.001,0.,3.001,-0.001,      117P    100
3.001,-0.001,3.001;                                                  117P    101
128,1,1,1,1,0,0,1,0,0,-0.001,-0.001,3.001,3.001,-0.001,-0.001,       119P    102
3.001,3.001,1.,1.,1.,1.,4.44089209850063D-16,3.001,-0.001,           119P    103
4.44089209850063D-16,-0.00099999999999989,-0.001,                    119P    104
4.44089209850063D-16,3.001,3.001,4.44089209850063D-16,               119P    105
-0.00099999999999989,3.001,-0.001,3.001,-0.001,3.001;                119P    106
128,1,1,1,1,0,0,1,0,0,-0.001,-0.001,3.001,3.001,-0.001,-0.001,       121P    107
3.001,3.001,1.,1.,1.,1.,3.001,3.,-0.001,-0.000999999999999446,       121P    108
3.,-0.001,3.001,3.,3.001,-0.000999999999999446,3.,3.001,-0.001,      121P    109
3.001,-0.001,3.001;                                                  121P    110
128,1,1,1,1,0,0,1,0,0,-0.001,-0.001,3.001,3.001,-0.001,-0.001,       123P    111
3.001,3.001,1.,1.,1.,1.,3.,-0.001,-0.001,3.,3.001,-0.001,3.,         123P    112
-0.001,3.001,3.,3.001,3.001,-0.001,3.001,-0.001,3.001;               123P    113
128,1,1,1,1,0,0,1,0,0,-1.501,-1.501,1.501,1.501,-1.501,-1.501,       125P    114
1.501,1.501,1.,1.,1.,1.,-0.000999999999999446,                       125P    115
-0.00099999999999989,3.,3.001,-0.00099999999999989,3.,               125P    116
-0.000999999999999446,3.001,3.,3.001,3.001,3.,-1.501,1.501,          125P    117
-1.501,1.501;                                                        125P    118
128,1,1,1,1,0,0,1,0,0,-1.501,-1.501,1.501,1.501,-1.501,-1.501,       127P    119
1.501,1.501,1.,1.,1.,1.,3.001,-0.00099999999999989,0.,               127P    120
-0.000999999999999446,-0.00099999999999989,0.,3.001,3.001,0.,        127P    121
-0.000999999999999446,3.001,0.,-1.501,1.501,-1.501,1.501;            127P    122
502,8,3.,0.,0.,6.,0.,0.,6.,0.,4.,3.,0.,4.,3.,3.,0.,3.,3.,4.,6.,      129P    123
3.,0.,6.,3.,4.;                                                      129P    124
502,8,4.44089209850063D-16,0.,0.,3.,0.,0.,3.,0.,3.,                  131P    125
4.44089209850063D-16,0.,3.,4.44089209850063D-16,3.,0.,               131P    126
4.44089209850063D-16,3.,3.,3.,3.,0.,3.,3.,3.;                        131P    127
504,12,57,129,1,129,2,59,129,2,129,3,61,129,4,129,3,63,129,1,        133P    128
129,4,65,129,5,129,1,67,129,6,129,4,69,129,5,129,6,71,129,7,129,     133P    129
5,73,129,8,129,6,75,129,7,129,8,77,129,2,129,7,79,129,3,129,8;       133P    130
504,12,81,131,1,131,2,83,131,2,131,3,85,131,4,131,3,87,131,1,        135P    131
131,4,89,131,5,131,1,91,131,6,131,4,93,131,5,131,6,95,131,7,131,     135P    132
5,97,131,8,131,6,99,131,7,131,8,101,131,2,131,7,103,131,3,131,8;     135P    133
406,1,2H64;                                                          137P    134
406,1,2H68;                                                          139P    135
406,2,0,1H0;                                                         141P    136
314,100.,100.,100.,;                                                 143P    137
S      1G      4D    144P    137                                        T      1
